<svg xmlns="http://www.w3.org/2000/svg" width="16.449" height="14" viewBox="0 0 16.449 14"><defs><style>.a{fill:#7e7e7e;}</style></defs><g transform="translate(-553.95 -142)"><g transform="translate(562.175 156) rotate(180)"><path class="a" d="M2.764,7,8,1.765A.768.768,0,0,0,8,.682L7.542.224a.767.767,0,0,0-1.083,0L.223,6.46a.773.773,0,0,0,0,1.087l6.23,6.23a.767.767,0,0,0,1.083,0L8,13.318a.767.767,0,0,0,0-1.083Z" transform="translate(0 0)"/></g><g transform="translate(570.4 156) rotate(180)"><path class="a" d="M2.764,7,8,1.765A.768.768,0,0,0,8,.682L7.542.224a.767.767,0,0,0-1.083,0L.223,6.46a.773.773,0,0,0,0,1.087l6.23,6.23a.767.767,0,0,0,1.083,0L8,13.318a.767.767,0,0,0,0-1.083Z" transform="translate(0 0)"/></g></g></svg>